<mxfile host="app.diagrams.net" modified="2021-12-28T19:01:18.016Z" agent="5.0 (Macintosh; Intel Mac OS X 10_15_7) AppleWebKit/537.36 (KHTML, like Gecko) Chrome/96.0.4664.110 Safari/537.36" etag="teg_S83tIONAVrycxpaP" version="16.1.0" type="github">
  <diagram id="vez03-mE5HUtkDIlK7xA" name="Page-1">
    <mxGraphModel dx="777" dy="561" grid="1" gridSize="10" guides="1" tooltips="1" connect="1" arrows="1" fold="1" page="1" pageScale="1" pageWidth="850" pageHeight="1100" math="0" shadow="0">
      <root>
        <mxCell id="0" />
        <mxCell id="1" parent="0" />
        <mxCell id="t-SdccuFHKq_KUxfnKXr-3" value="" style="edgeStyle=orthogonalEdgeStyle;rounded=0;orthogonalLoop=1;jettySize=auto;html=1;" edge="1" parent="1" source="t-SdccuFHKq_KUxfnKXr-1" target="t-SdccuFHKq_KUxfnKXr-2">
          <mxGeometry relative="1" as="geometry" />
        </mxCell>
        <mxCell id="t-SdccuFHKq_KUxfnKXr-1" value="Game download" style="ellipse;whiteSpace=wrap;html=1;" vertex="1" parent="1">
          <mxGeometry x="30" y="110" width="120" height="80" as="geometry" />
        </mxCell>
        <mxCell id="t-SdccuFHKq_KUxfnKXr-7" value="" style="edgeStyle=orthogonalEdgeStyle;rounded=0;orthogonalLoop=1;jettySize=auto;html=1;" edge="1" parent="1" source="t-SdccuFHKq_KUxfnKXr-2" target="t-SdccuFHKq_KUxfnKXr-6">
          <mxGeometry relative="1" as="geometry" />
        </mxCell>
        <mxCell id="t-SdccuFHKq_KUxfnKXr-2" value="Type of platform" style="whiteSpace=wrap;html=1;" vertex="1" parent="1">
          <mxGeometry x="230" y="120" width="120" height="60" as="geometry" />
        </mxCell>
        <mxCell id="t-SdccuFHKq_KUxfnKXr-9" value="" style="edgeStyle=orthogonalEdgeStyle;rounded=0;orthogonalLoop=1;jettySize=auto;html=1;" edge="1" parent="1" source="t-SdccuFHKq_KUxfnKXr-6" target="t-SdccuFHKq_KUxfnKXr-8">
          <mxGeometry relative="1" as="geometry" />
        </mxCell>
        <mxCell id="t-SdccuFHKq_KUxfnKXr-6" value="Policies" style="whiteSpace=wrap;html=1;" vertex="1" parent="1">
          <mxGeometry x="430" y="120" width="120" height="60" as="geometry" />
        </mxCell>
        <mxCell id="t-SdccuFHKq_KUxfnKXr-8" value="Game downloaded" style="ellipse;whiteSpace=wrap;html=1;" vertex="1" parent="1">
          <mxGeometry x="630" y="120" width="120" height="60" as="geometry" />
        </mxCell>
        <mxCell id="t-SdccuFHKq_KUxfnKXr-12" value="" style="edgeStyle=orthogonalEdgeStyle;rounded=0;orthogonalLoop=1;jettySize=auto;html=1;" edge="1" parent="1" source="t-SdccuFHKq_KUxfnKXr-10">
          <mxGeometry relative="1" as="geometry">
            <mxPoint x="230" y="320" as="targetPoint" />
          </mxGeometry>
        </mxCell>
        <mxCell id="t-SdccuFHKq_KUxfnKXr-10" value="Account Sign up" style="ellipse;whiteSpace=wrap;html=1;" vertex="1" parent="1">
          <mxGeometry x="30" y="280" width="120" height="80" as="geometry" />
        </mxCell>
        <mxCell id="t-SdccuFHKq_KUxfnKXr-22" value="" style="edgeStyle=orthogonalEdgeStyle;rounded=0;orthogonalLoop=1;jettySize=auto;html=1;" edge="1" parent="1" target="t-SdccuFHKq_KUxfnKXr-21">
          <mxGeometry relative="1" as="geometry">
            <mxPoint x="350" y="320" as="sourcePoint" />
          </mxGeometry>
        </mxCell>
        <mxCell id="t-SdccuFHKq_KUxfnKXr-26" value="" style="edgeStyle=orthogonalEdgeStyle;rounded=0;orthogonalLoop=1;jettySize=auto;html=1;" edge="1" parent="1" source="t-SdccuFHKq_KUxfnKXr-21" target="t-SdccuFHKq_KUxfnKXr-25">
          <mxGeometry relative="1" as="geometry" />
        </mxCell>
        <mxCell id="t-SdccuFHKq_KUxfnKXr-21" value="Email Authorized link" style="whiteSpace=wrap;html=1;" vertex="1" parent="1">
          <mxGeometry x="410" y="290" width="120" height="60" as="geometry" />
        </mxCell>
        <mxCell id="t-SdccuFHKq_KUxfnKXr-25" value="Account created" style="ellipse;whiteSpace=wrap;html=1;" vertex="1" parent="1">
          <mxGeometry x="630" y="290" width="120" height="60" as="geometry" />
        </mxCell>
        <mxCell id="t-SdccuFHKq_KUxfnKXr-27" value="Information of Account" style="shape=process;whiteSpace=wrap;html=1;backgroundOutline=1;" vertex="1" parent="1">
          <mxGeometry x="230" y="290" width="120" height="60" as="geometry" />
        </mxCell>
        <mxCell id="t-SdccuFHKq_KUxfnKXr-30" value="" style="edgeStyle=orthogonalEdgeStyle;rounded=0;orthogonalLoop=1;jettySize=auto;html=1;" edge="1" parent="1" source="t-SdccuFHKq_KUxfnKXr-28" target="t-SdccuFHKq_KUxfnKXr-29">
          <mxGeometry relative="1" as="geometry" />
        </mxCell>
        <mxCell id="t-SdccuFHKq_KUxfnKXr-28" value="Information of Account" style="ellipse;whiteSpace=wrap;html=1;" vertex="1" parent="1">
          <mxGeometry x="30" y="420" width="120" height="80" as="geometry" />
        </mxCell>
        <mxCell id="t-SdccuFHKq_KUxfnKXr-34" value="" style="edgeStyle=orthogonalEdgeStyle;rounded=0;orthogonalLoop=1;jettySize=auto;html=1;" edge="1" parent="1" source="t-SdccuFHKq_KUxfnKXr-29" target="t-SdccuFHKq_KUxfnKXr-33">
          <mxGeometry relative="1" as="geometry" />
        </mxCell>
        <mxCell id="t-SdccuFHKq_KUxfnKXr-29" value="Required: Name, email" style="whiteSpace=wrap;html=1;" vertex="1" parent="1">
          <mxGeometry x="230" y="430" width="120" height="60" as="geometry" />
        </mxCell>
        <mxCell id="t-SdccuFHKq_KUxfnKXr-38" value="" style="edgeStyle=orthogonalEdgeStyle;rounded=0;orthogonalLoop=1;jettySize=auto;html=1;" edge="1" parent="1" source="t-SdccuFHKq_KUxfnKXr-33" target="t-SdccuFHKq_KUxfnKXr-37">
          <mxGeometry relative="1" as="geometry" />
        </mxCell>
        <mxCell id="t-SdccuFHKq_KUxfnKXr-41" value="Yes&lt;br&gt;" style="edgeLabel;html=1;align=center;verticalAlign=middle;resizable=0;points=[];" vertex="1" connectable="0" parent="t-SdccuFHKq_KUxfnKXr-38">
          <mxGeometry x="0.36" relative="1" as="geometry">
            <mxPoint y="-7" as="offset" />
          </mxGeometry>
        </mxCell>
        <mxCell id="t-SdccuFHKq_KUxfnKXr-43" value="" style="edgeStyle=orthogonalEdgeStyle;rounded=0;orthogonalLoop=1;jettySize=auto;html=1;" edge="1" parent="1" source="t-SdccuFHKq_KUxfnKXr-33">
          <mxGeometry relative="1" as="geometry">
            <mxPoint x="715" y="460" as="targetPoint" />
          </mxGeometry>
        </mxCell>
        <mxCell id="t-SdccuFHKq_KUxfnKXr-44" value="No" style="edgeLabel;html=1;align=center;verticalAlign=middle;resizable=0;points=[];" vertex="1" connectable="0" parent="t-SdccuFHKq_KUxfnKXr-43">
          <mxGeometry x="0.0783" y="-1" relative="1" as="geometry">
            <mxPoint as="offset" />
          </mxGeometry>
        </mxCell>
        <mxCell id="t-SdccuFHKq_KUxfnKXr-33" value="Would you like to link your acc. to other platforms?" style="rhombus;whiteSpace=wrap;html=1;" vertex="1" parent="1">
          <mxGeometry x="410" y="390" width="190" height="140" as="geometry" />
        </mxCell>
        <mxCell id="t-SdccuFHKq_KUxfnKXr-40" value="Facebook" style="edgeStyle=orthogonalEdgeStyle;rounded=0;orthogonalLoop=1;jettySize=auto;html=1;" edge="1" parent="1" source="t-SdccuFHKq_KUxfnKXr-37" target="t-SdccuFHKq_KUxfnKXr-39">
          <mxGeometry relative="1" as="geometry" />
        </mxCell>
        <mxCell id="t-SdccuFHKq_KUxfnKXr-37" value="What platform?" style="rhombus;whiteSpace=wrap;html=1;" vertex="1" parent="1">
          <mxGeometry x="425" y="570" width="160" height="120" as="geometry" />
        </mxCell>
        <mxCell id="t-SdccuFHKq_KUxfnKXr-39" value="Facebook authorize process" style="whiteSpace=wrap;html=1;" vertex="1" parent="1">
          <mxGeometry x="190" y="600" width="120" height="60" as="geometry" />
        </mxCell>
        <mxCell id="t-SdccuFHKq_KUxfnKXr-45" value="Information process finished" style="ellipse;whiteSpace=wrap;html=1;" vertex="1" parent="1">
          <mxGeometry x="720" y="420" width="120" height="80" as="geometry" />
        </mxCell>
      </root>
    </mxGraphModel>
  </diagram>
</mxfile>
